<?xml version="1.0" encoding="utf-8"?>
<!-- Generator: Adobe Illustrator 21.0.2, SVG Export Plug-In . SVG Version: 6.00 Build 0)  -->
<svg version="1.1" xmlns="http://www.w3.org/2000/svg" xmlns:xlink="http://www.w3.org/1999/xlink" x="0px" y="0px"
	 viewBox="0 0 370 432.9" style="enable-background:new 0 0 370 432.9;" xml:space="preserve">
<style type="text/css">
	.st0{fill:#FFFFFF;}
</style>
<g id="background">
</g>
<g id="objects">
	<path class="st0" d="M337.2,330.8c0,0-7.3,2.7-7.7,13c0,0,1.5-2,2.7-2.2c0,0-4.4,5.5-2.8,13.8c0,0,1-2.8,3-3.2c0,0-4.3,7.6-5.6,9.8
		c-1.3,2.2-6.4,10.8-13.8,10c0,0,5.9,4.9,3.9,8.6c-1.2,2.1-8.3-0.1-8.5,0c0,0,6.8,6.5,2.9,12c-3.8,5.4-11.2,9.2-11.7,9.5
		c0.1-0.2,1.4-1.8,1.4-1.9c0-0.1-9.8-0.8-12.3,2.6c0.1-0.2,1-2,1-2c0-0.1-8.2,0.5-13.1,8.7c0,0-11.6,7.2-25-7.4c0,0-9.5,3.6-10-1.1
		c0,0,4.2-0.3,4.9-5c0.4-2.9-2.1-6.7-8-6.7c-6.8,0-11.1,6.4-11,12.8c0,0-15.8-4.5-28.6,4.4c0,0-5.8-3.6-13.2-3.6h-0.3
		c-7.5,0-13.3,4.5-13.3,4.5c-12.8-9-28.6-4.5-28.6-4.5c0.1-6.4-4.2-12.8-11-12.8c-5.9,0-8.4,3.8-8,6.7c0.7,4.7,4.9,5,4.9,5
		c-0.5,4.6-10,1-10,1c-13.4,14.6-25,7.4-25,7.4c-4.9-8.2-13.1-8.8-13.1-8.7c0,0.1,0.9,1.8,1,2c-2.5-3.4-12.4-2.7-12.3-2.6
		c0,0.1,1.3,1.7,1.4,1.8c-0.5-0.2-8-4.1-11.7-9.5c-3.9-5.6,2.9-12.1,2.9-12.1c-0.1-0.1-7.3,2.1-8.5,0c-2-3.7,3.9-8.5,3.9-8.5
		c-7.4,0.8-12.4-7.8-13.8-10c-1.3-2.2-5.6-9.8-5.6-9.8c2,0.4,3,3.2,3,3.2c1.5-8.2-2.8-13.8-2.8-13.8c1.2,0.2,2.7,2.2,2.7,2.2
		c-0.3-10.3-7.7-13-7.7-13c-3.5-21,10.2-25,10.2-25c-7.2-6,1.4-9.9,1.4-9.9c-0.6,3,1,4.1,1,4.1c4.3,3,10.6,2.1,10.8-7.1
		c0.2-9.2-9.4-10.1-9.4-10.1c-12.4,0.8-14.2-12.5-14.4-19.2h0.1v-95.9h-0.1c0.3-7,2.5-19.1,14.4-18.4c0,0,9.6-0.9,9.4-10.1
		c-0.2-9.2-6.5-10.2-10.8-7.1c0,0-1.7,1-1,4.1c0,0-8.5-3.9-1.4-9.9c0,0-13.8-4-10.2-25c0,0,7.4-2.7,7.7-13c0,0-1.5,2-2.7,2.2
		c0,0,4.4-5.5,2.8-13.8c0,0-1,2.8-2.9,3.2c0,0,4.3-7.6,5.6-9.8c1.3-2.2,6.4-10.8,13.8-10c0,0-5.9-4.9-3.9-8.5c1.1-2.1,8.1,0,8.5,0
		c-0.3-0.3-6.7-6.6-2.9-12.1c3.9-5.6,11.7-9.5,11.7-9.5s-1.4,1.8-1.5,1.9c0,0.1,9.8,0.8,12.3-2.6c-0.1,0.2-1,2-1,2
		c0,0.1,8.2-0.5,13.1-8.7c0,0,11.5-7.2,25,7.4c0,0,9.5-3.6,10,1c0,0-4.2,0.4-4.9,5c-0.4,2.9,2.1,6.7,8,6.7c6.9,0,11.1-6.4,11-12.8
		c0,0,15.8,4.5,28.6-4.5c0,0,5.9,4.5,13.3,4.5h0.3c7.5,0,13.2-3.6,13.2-3.6c12.8,9,28.6,4.5,28.6,4.5c-0.1,6.4,4.2,12.8,11,12.8
		c5.9,0,8.4-3.8,8-6.7c-0.7-4.7-4.9-5-4.9-5c0.5-4.6,10-1.1,10-1.1c13.4-14.6,25-7.4,25-7.4c4.9,8.2,13.1,8.8,13.1,8.7
		c0-0.1-0.9-1.8-1-2c2.5,3.4,12.3,2.7,12.3,2.6c0-0.1-1.4-1.9-1.4-1.9s7.9,3.9,11.7,9.5c3.8,5.4-2.6,11.7-2.9,12
		c0.3,0,7.3-2.1,8.5,0c2,3.7-3.9,8.5-3.9,8.5c7.4-0.8,12.5,7.8,13.8,10c1.3,2.2,5.7,9.8,5.7,9.8c-2-0.4-3-3.2-3-3.2
		c-1.5,8.2,2.8,13.8,2.8,13.8c-1.2-0.2-2.7-2.2-2.7-2.2c0.3,10.3,7.7,13,7.7,13c3.5,21-10.2,25-10.2,25c7.2,6-1.4,9.9-1.4,9.9
		c0.7-3-1-4.1-1-4.1c-4.3-3-10.6-2.1-10.8,7.2c-0.2,9.2,9.4,10.1,9.4,10.1c11.3-0.7,13.9,10.3,14.3,17.4h0v91.2l-0.1-0.1
		c0,0,0,0.3,0.1,0.9v3.9h0c-0.3,7-2.5,19-14.4,18.3c0,0-9.6,0.9-9.4,10.1c0.2,9.2,6.5,10.2,10.8,7.1c0,0,1.7-1,1-4.1
		c0,0,8.5,3.9,1.4,9.9C327,305.8,340.7,309.8,337.2,330.8z"/>
</g>
</svg>
