<svg width="103" height="88" viewBox="0 0 103 88" xmlns="http://www.w3.org/2000/svg"><title>Page 1</title><path d="M100.638 88c.958 0 1.597-.628 1.597-1.57V45.572c0-.943-.639-1.572-1.597-1.572H73.48c0-15.94 12.55-28.286 28.754-28.286V0c-24.69 0-44.727 19.711-44.727 44v42.43c0 .942.638 1.57 1.596 1.57h41.534zM43.13 88c.958 0 1.596-.628 1.596-1.57V45.572c0-.943-.638-1.572-1.596-1.572H15.975c0-15.94 12.55-28.286 28.752-28.286V0C20.037 0 0 19.711 0 44v42.43C0 87.372.64 88 1.598 88H43.13z" fill="#EAEAEA" fill-rule="evenodd" opacity=".458"/></svg>