<?xml version="1.0" encoding="utf-8"?>
<!-- Generator: Adobe Illustrator 21.0.2, SVG Export Plug-In . SVG Version: 6.00 Build 0)  -->
<svg version="1.1" id="Layer_1" xmlns="http://www.w3.org/2000/svg" xmlns:xlink="http://www.w3.org/1999/xlink" x="0px" y="0px"
	 viewBox="0 0 360 360" style="enable-background:new 0 0 360 360;" xml:space="preserve">
<style type="text/css">
	.st0{fill:#FFFFFF;}
	.st1{fill:none;stroke:#FFFFFF;}
</style>
<g>
	<g>
		<g>
			<polygon class="st0" points="180,224.8 192.1,217.9 180.8,226 			"/>
		</g>
		<g>
			<polygon class="st0" points="180,226 168.1,217.6 180.8,224.8 			"/>
		</g>
		<g>
			<polygon class="st0" points="180.7,224.7 187,228.3 180.1,226.1 			"/>
		</g>
		<g>
			<polygon class="st0" points="180.7,226 173.8,228.3 180.1,224.7 			"/>
		</g>
		<g>
			<polygon class="st0" points="179.6,225.4 180.4,207.6 181.1,225.4 			"/>
		</g>
	</g>
	<g>
		<g>
			<polygon class="st0" points="154.9,252.2 154.4,238.3 156.4,252.1 			"/>
		</g>
		<g>
			<polygon class="st0" points="156,252.8 143.1,259.5 155.3,251.5 			"/>
		</g>
		<g>
			<polygon class="st0" points="155.2,251.6 161.3,247.6 156.1,252.7 			"/>
		</g>
		<g>
			<polygon class="st0" points="156.4,252.2 155.3,259.4 154.9,252.1 			"/>
		</g>
		<g>
			<polygon class="st0" points="155.3,252.8 139.8,244 156,251.5 			"/>
		</g>
	</g>
	<g>
		<g>
			<polygon class="st0" points="205.2,252.1 216.8,259.7 204.4,253.4 			"/>
		</g>
		<g>
			<polygon class="st0" points="204.1,252.7 206.1,238.2 205.6,252.8 			"/>
		</g>
		<g>
			<polygon class="st0" points="205.6,252.7 205.3,259.9 204.1,252.8 			"/>
		</g>
		<g>
			<polygon class="st0" points="204.4,253.3 199.2,248.2 205.3,252.1 			"/>
		</g>
		<g>
			<polygon class="st0" points="204.5,252.1 220.7,244.6 205.2,253.4 			"/>
		</g>
	</g>
</g>
<g>
	<path class="st1" d="M140.4,90.4l-0.6-0.2c0,0-1.2,1.1-1.5,2.1c-0.3,1.3-0.3,2.2,0.6,3.3c0.6,0.7,2.1,1,3,1.2"/>
	<path class="st1" d="M218.2,96.7c0.9-0.2,2.4-0.5,2.9-1.2c0.9-1.1,0.9-2,0.6-3.3c-0.2-0.9-1.5-2.1-1.5-2.1l-0.6,0.2"/>
</g>
<g>
	<path class="st1" d="M222.8,80.2C222.9,80.2,222.9,80.2,222.8,80.2c1.9,0,3.3-1.4,3.3-3.2c0-0.8-0.3-1.5-0.8-2.1"/>
	<path class="st1" d="M134.7,75c-0.4,0.6-0.7,1.2-0.7,2c0,1.8,1.4,3.2,3.2,3.2"/>
</g>
<g>
	<path class="st0" d="M299.8,292.9l1.5-2.8l-7.8,0.5c-1.2,0.1-2.2-1-0.4-2.2l9.9-7.2l-3.2-1.1c-0.9-0.3-1.6-0.9-1.3-1.8l2.5-8.8
		l-8.3,2.7c-0.9,0.3-1.4-0.4-1.7-1.4l-1-3.4l-6.8,10.5c-1.2,2-2.2,0.8-2.1-0.4l0.5-8.3l-2.7,1.6c-0.3,0.2-0.9,0.2-1.3-0.4l-3.6-6
		l-3.2,6c-0.7,1.3-0.9,2-1.9,1.5l-2.4-0.9l1.4,15.4c0.1,0.6-0.2,1.2-0.7,1.5l-3,1.7c3,2.6,5.3,4.3,8.4,7.1
		c-6.8,7.5-24.6,18.6-24.6,18.6l6.2,5.1c0,0,15.1-12.7,21.2-20.7c0.1,0.1,4.1,5.7,6.6,9l1.6-3.2c0.3-0.5,0.9-0.8,1.4-0.8l14.4,1.6
		l-0.9-2.6c-0.5-1.1,0.1-1.3,1.4-2l5.7-3.4l-5.6-3.9C299.6,293.9,299.6,293.2,299.8,292.9z"/>
	<path class="st0" d="M333.5,224.2l3.3-6l-6.7-0.4c-0.6-0.1-1-0.6-0.9-1l0-3.3l-6.5,4.5c-1,0.8-2.4,0.4-1.4-1.7l5.2-11.5l-3.3,0.8
		c-0.9,0.3-1.7,0.1-2-0.9l-2-9l-5.9,6.7c-0.7,0.7-1.4,0.4-2.1-0.3l-2.5-2.4l-0.9,12.7c-0.1,2.3-1.5,1.9-2,0.8l-3.5-7.4l-1.6,2.8
		c-0.2,0.4-0.7,0.7-1.3,0.4l-6-3.2l0,6.9c0,1.5,0.1,2.2-1,2.3l-2.5,0.5l8.5,12.5c0.3,0.5,0.4,1.2,0.1,1.7l-1.8,3.1
		c3.9,0.6,6.6,0.9,10.6,1.6c-2.4,10.1-12.5,29.3-12.5,29.3l7.8,1.1c0,0,7.1-19.1,8.6-29.2c0.1,0,6.3,2.7,9.9,4.3l-0.1-3.6
		c0-0.6,0.4-1.2,0.9-1.4l13.2-6.3l-2-1.8C332.3,226.1,332.8,225.6,333.5,224.2z"/>
	<path class="st0" d="M296.2,132.4l-3.3-0.7l5.2,11.5c1,2.1-0.4,2.5-1.4,1.7l-6.5-4.5l0,3.3c0,0.4-0.3,1-0.9,1l-6.7,0.4l3.3,6
		c0.7,1.3,1.1,1.8,0.2,2.5l-2,1.8l13.3,6.3c0.5,0.2,0.9,0.8,0.9,1.4l-0.1,3.6c3.6-1.5,6.1-2.7,9.9-4.3c2.7,10,3,32,3,32l7.3-3.2
		c0,0-2.9-20.3-6.4-29.9c0.1,0,6.7-1,10.6-1.6l-1.8-3.1c-0.3-0.5-0.2-1.2,0.1-1.7l8.5-12.6l-2.5-0.5c-1.1-0.1-1-0.8-1-2.3l0-6.9
		l-6,3.2c-0.6,0.3-1.1,0-1.3-0.4l-1.6-2.8l-3.5,7.4c-0.5,1.2-1.9,1.6-2-0.8l-0.9-12.7l-2.5,2.4c-0.7,0.7-1.5,1-2.1,0.3l-6-6.7l-2,9
		C298,132.5,297.1,132.6,296.2,132.4z"/>
	<path class="st0" d="M244.6,98.2l5.7,3.4c1.2,0.8,1.9,1,1.4,2l-0.9,2.6l14.4-1.7c0.6-0.1,1.2,0.2,1.4,0.8l1.6,3.2
		c2.4-3.3,4-5.6,6.5-9c7.1,7.2,17.7,26,17.7,26l4.8-6.7c0,0-12.1-16-19.6-22.4c0-0.1,5.3-4.5,8.4-7.1l-3-1.7
		c-0.5-0.3-0.8-0.9-0.7-1.5l1.4-15.4l-2.4,0.9c-1,0.5-1.2-0.1-1.9-1.5l-3.2-6l-3.6,6c-0.4,0.6-1,0.6-1.3,0.4l-2.7-1.6l0.5,8.3
		c0.1,1.3-0.9,2.4-2.1,0.4l-6.8-10.5l-1,3.4c-0.3,1-0.8,1.7-1.7,1.4l-8.3-2.6l2.6,8.8c0.3,1-0.4,1.5-1.3,1.8l-3.2,1.1l9.9,7.1
		c1.8,1.3,0.8,2.4-0.4,2.2L249,90l1.5,2.8c0.2,0.4,0.2,1-0.3,1.4L244.6,98.2z"/>
	<path class="st0" d="M250.8,323.2l-8.4-2.2c-0.9-0.3-1.1-1.1-0.8-2.1l0.7-3.5l-10.8,5.5c-2,1.1-2.3-0.5-1.6-1.5l4.3-6.9l-3.1-0.1
		c-0.4,0-0.9-0.3-1-1l-0.3-7.1l-5.6,3.5c-1.3,0.8-1.7,1.2-2.4,0.2l-1.7-2.1l-6,14.1c-0.2,0.6-0.8,0.9-1.4,0.9l-3.4-0.1
		c1.4,3.9,2.5,6.6,3.9,10.6c-10.8,0.5-22.7,4.6-33.3,9.6c-10.6-4.9-22.5-9.1-33.3-9.6c1.4-4,2.5-6.7,3.9-10.6l-3.4,0.1
		c-0.6,0-1.1-0.4-1.4-0.9l-6-14.1l-1.6,2.1c-0.6,1-1.1,0.5-2.4-0.2l-5.6-3.5l-0.3,7.1c-0.1,0.7-0.6,1-1,1l-3.1,0.1l4.3,6.9
		c0.7,1,0.3,2.5-1.6,1.5l-10.8-5.5l0.7,3.5c0.2,1,0.1,1.9-0.8,2.1l-8.4,2.2l6.4,6.3c0.7,0.7,0.4,1.5-0.3,2.3l-2.2,2.6l11.9,0.9
		c2.2,0.1,1.8,1.6,0.7,2.1l-6.9,3.8l2.6,1.7c0.4,0.2,0.6,0.8,0.4,1.4l-3,6.4l6.5-0.1c1.4,0,2.1-0.1,2.2,1l0.5,2.7l11.7-9.1
		c0.4-0.4,1.1-0.4,1.6-0.1l2.9,1.9c0.5-4.1,1.4-11.2,1.4-11.3c8.9,0.6,18.9,4.3,27.8,8.6c-13.9,7.2-24.2,14.7-24.2,14.7h12.4
		c0,0,7.8-5.6,18.3-11.3c10.6,5.7,18.3,11.3,18.3,11.3h12.4c0,0-10.3-7.5-24.2-14.7c8.9-4.3,18.9-8,27.8-8.6c0,0.1,0.9,7.2,1.4,11.3
		l2.9-1.9c0.5-0.3,1.2-0.3,1.6,0.1l11.7,9.1l0.5-2.7c0.1-1.2,0.7-1,2.2-1l6.5,0.1l-3-6.4c-0.3-0.6,0-1.2,0.4-1.4l2.6-1.7l-6.9-3.8
		c-1.1-0.5-1.5-2,0.7-2.1l11.9-0.9l-2.2-2.6c-0.7-0.7-0.9-1.6-0.3-2.3L250.8,323.2z"/>
	<path class="st0" d="M87.4,296.5c3.1-2.7,5.4-4.5,8.4-7.1l-3-1.7c-0.5-0.3-0.8-0.9-0.7-1.5l1.4-15.4l-2.4,0.9
		c-1,0.5-1.2-0.1-1.9-1.5l-3.2-6l-3.6,6c-0.4,0.6-1,0.6-1.3,0.4l-2.7-1.6l0.5,8.3c0.1,1.2-0.9,2.4-2.1,0.4l-6.8-10.5l-1,3.4
		c-0.3,1-0.8,1.7-1.7,1.4l-8.3-2.7l2.5,8.8c0.3,1-0.4,1.5-1.3,1.8l-3.2,1.1l9.9,7.2c1.9,1.3,0.8,2.4-0.4,2.2l-7.8-0.5l1.5,2.8
		c0.2,0.4,0.2,1-0.3,1.4l-5.6,3.9l5.7,3.4c1.2,0.8,1.9,1,1.4,2l-0.9,2.6l14.4-1.6c0.6-0.1,1.1,0.2,1.4,0.8l1.6,3.2
		c2.4-3.3,6.5-8.9,6.6-9c6.1,7.9,21.2,20.7,21.2,20.7l6.2-5.1C112,315.1,94.2,303.9,87.4,296.5z"/>
	<path class="st0" d="M65.1,263.8c0,0-10.1-19.2-12.5-29.3c4-0.7,6.7-1,10.6-1.6l-1.8-3.1c-0.3-0.5-0.3-1.2,0.1-1.7l8.5-12.5
		l-2.5-0.5c-1.1-0.1-1-0.8-1-2.3l0-6.9l-6,3.2c-0.6,0.3-1.1,0-1.3-0.4l-1.6-2.8l-3.5,7.4c-0.5,1.2-1.9,1.6-2-0.8l-0.9-12.7l-2.5,2.4
		c-0.7,0.7-1.5,1-2.1,0.3l-5.9-6.7l-2,9c-0.2,1-1.1,1.1-2,0.9l-3.3-0.8l5.2,11.5c1,2.1-0.4,2.5-1.4,1.7l-6.5-4.5l0,3.3
		c0,0.4-0.3,1-0.9,1l-6.7,0.4l3.3,6c0.7,1.3,1.1,1.8,0.2,2.5l-2,1.8l13.2,6.3c0.5,0.2,0.9,0.8,0.9,1.4l-0.1,3.6
		c3.6-1.5,9.8-4.2,9.9-4.3c1.5,10.1,8.6,29.2,8.6,29.2L65.1,263.8z"/>
	<path class="st0" d="M39.1,156.5l-1.8,3.1c3.9,0.6,10.5,1.6,10.6,1.6c-3.5,9.6-6.4,29.9-6.4,29.9l7.3,3.2c0,0,0.3-22,3-32
		c3.8,1.6,6.3,2.7,9.9,4.3l-0.1-3.6c0-0.6,0.4-1.2,0.9-1.4l13.3-6.3l-2-1.8c-0.9-0.7-0.5-1.2,0.2-2.5l3.3-6l-6.7-0.4
		c-0.6-0.1-1-0.6-0.9-1l0-3.3l-6.5,4.5c-1,0.8-2.4,0.3-1.4-1.7l5.2-11.5l-3.3,0.7c-0.9,0.2-1.7,0.1-2-0.9l-1.9-9l-6,6.7
		c-0.7,0.7-1.5,0.4-2.1-0.3l-2.5-2.4l-0.9,12.7c-0.1,2.3-1.6,1.9-2,0.8l-3.5-7.4l-1.6,2.8c-0.2,0.4-0.7,0.7-1.3,0.4l-6-3.2l0,6.9
		c0,1.5,0.1,2.2-1,2.3l-2.5,0.5l8.5,12.6C39.4,155.3,39.4,156,39.1,156.5z"/>
	<path class="st0" d="M62.7,118.8l4.8,6.7c0,0,10.6-18.8,17.7-26c2.5,3.4,4.1,5.7,6.5,9l1.6-3.2c0.3-0.5,0.9-0.8,1.4-0.8l14.4,1.7
		l-0.9-2.6c-0.5-1.1,0.1-1.3,1.4-2l5.7-3.4l-5.6-3.9c-0.5-0.4-0.5-1-0.3-1.4L111,90l-7.8,0.4c-1.2,0.1-2.2-1-0.4-2.2l9.9-7.1
		l-3.2-1.1c-0.9-0.3-1.6-0.9-1.3-1.8l2.6-8.8l-8.3,2.6c-0.9,0.3-1.4-0.4-1.7-1.4l-1-3.4L93,77.7c-1.2,2-2.2,0.8-2.1-0.4l0.5-8.3
		l-2.7,1.6c-0.3,0.2-0.9,0.2-1.3-0.4l-3.6-6l-3.2,6c-0.7,1.3-0.9,2-1.9,1.5l-2.4-0.9l1.4,15.4c0.1,0.6-0.2,1.2-0.7,1.5l-3,1.7
		c3,2.6,8.3,7,8.4,7.1C74.8,102.8,62.7,118.8,62.7,118.8z"/>
	<path class="st0" d="M102,198.6c0,30-0.8,55.3,28,80.3c13.4,11.6,33.7,27.1,50,34.3c16.4-7.2,36.6-22.7,50-34.3
		c28.8-25,28-50.3,28-80.3v-72.8h-78h-78V198.6z M185.7,134.1h65.4l0,22.8h-65.4L185.7,134.1z M185.7,168.2h65.4l0,22.8h-65.4
		L185.7,168.2z M176.3,204.3l3.7-6.9l3.7,6.9c0.4,0.7,1.2,0.7,1.9,0.3l2.7-1.4l-2,10.5c-0.4,1.9,0.9,1.9,1.6,1.1l4.6-5.2l0.8,2.6
		c0.1,0.3,0.5,0.7,1,0.6l5.9-1.2l-1.5,5.6c-0.3,1.3-0.6,1.8,0.3,2.1l2.1,1l-10.1,8.2c-0.4,0.3-0.6,0.9-0.5,1.4l0.9,2.9l-9.7-1.1
		l0.2,30.5l16.6-8.6l-5.6-7.9l3-0.5c0.5-0.1,0.9-0.5,1-1l2.7-12.8l1.8,1.4c0.7,0.7,1,0.2,2-0.7l4.3-3.9l1.6,5.8
		c0.2,0.5,0.7,0.7,1,0.6l2.7-0.5l-2.5,6.5c-0.4,1,0.2,2.2,1.7,0.9l8.5-6.6l0,3c0,0.9,0.3,1.6,1.1,1.6l7.8,0.1l-4.4,6.4
		c-0.5,0.7-0.1,1.3,0.6,1.8l2.4,1.7l-10.3,3.1c-1.9,0.5-1.3,1.7-0.2,1.9l6.7,1.8l-2,1.9c-0.3,0.2-0.4,0.7-0.1,1.2l3.8,4.7l-5.7,1.2
		c-1.3,0.3-1.8,0.3-1.7,1.3l0.1,2.3l-11.9-5.2c-0.5-0.2-1.1-0.1-1.4,0.2l-2.2,2.1l-3.5-9.3l-17.8,9.5l-0.4,22.2l-1.4,1.5l-1.4-1.5
		l-0.4-22.2l-17.8-9.5l-3.5,9.3l-2.2-2.1c-0.4-0.4-1-0.4-1.4-0.2l-11.9,5.2l0.1-2.3c0.1-1-0.4-1-1.7-1.3l-5.7-1.2l3.8-4.7
		c0.3-0.5,0.2-1-0.1-1.2l-2-1.9l6.7-1.8c1-0.2,1.7-1.4-0.2-1.9l-10.3-3.1l2.4-1.7c0.7-0.5,1.1-1.1,0.6-1.8l-4.4-6.4l7.8-0.1
		c0.9,0,1.1-0.7,1.1-1.6l0-3l8.5,6.6c1.5,1.3,2.1,0.1,1.7-0.9l-2.5-6.5l2.7,0.5c0.3,0.1,0.8-0.1,1-0.6l1.6-5.8l4.3,3.9
		c1,0.9,1.3,1.3,2,0.7l1.8-1.4l2.7,12.8c0.1,0.5,0.5,0.9,1,1l3,0.5l-5.6,7.9l16.6,8.5l0.2-30.5l-9.7,1.1l0.9-2.9
		c0.1-0.5-0.1-1.1-0.5-1.4l-10.1-8.2l2.1-1c0.9-0.3,0.7-0.8,0.3-2.1l-1.5-5.6l5.9,1.2c0.6,0.1,1-0.3,1-0.6l0.8-2.6l4.6,5.2
		c0.7,0.8,2,0.8,1.6-1.1l-2-10.5l2.7,1.4C175.2,205,175.9,205.1,176.3,204.3z M108.9,134.1h65.4l0,22.8h-65.4L108.9,134.1z
		 M108.9,168.2h65.4l0,22.8h-65.4L108.9,168.2z"/>
	<path class="st0" d="M126.4,43.9c-2.4,7.9,0.4,17.3,2.9,21.6c1.9,3.3,3.4,5.6,3.9,6.4c0.4,0.9,0.9,1.9,1.5,3.1
		c0.6-0.7,1.5-1.2,2.5-1.2c1,0,1.9,0.5,2.5,1.2l1.3-8.6l-4.5,1.9c-2.7-3.2-6.9-9.8-6-18.1c1.3-11.9,7.2-14.7,7.2-14.7
		s7.3-5.7,17.1-0.3c9.8,5.4,19.4,7.9,19.4,7.9s0.1-0.1,0.2-0.3v12.5c0,0.4,0,0.8,0.1,1.2h-2.7l5.6,9l-8.1-3l0.9,13.5l7.1-4.3
		c0,0-4,8.6-9.3,8.8c-5.2,0.2-7-2.1-7-2.1s-0.5-1.8-0.2-2.6c0.3-0.6,1-1.2,1.6-1.2c1.8-0.2,2.9,2,2.9,2s0.7-1.4,0.3-4
		c-0.4-1.6-1.5-3-3.2-2.9c-0.7,0.1-2.1,0.7-2.4,1.5c0.2-5.2-1.3-9.2-3.9-11.1h0c-1.9,2.7-2,7-0.2,11.9c-0.5-0.6-2.1-0.8-2.8-0.6
		c-1.6,0.5-2.2,2.2-2.1,3.9c0.5,2.5,1.5,3.7,1.5,3.7s0.3-2.5,2.1-2.9c0.6-0.3,1.5,0.1,1.9,0.6c0.6,0.6,0.5,2.6,0.5,2.6
		c0.3-0.1-7.5,6-14.5,3.2c-1-0.8-2.2-3.3-2.2-3.3l7-0.1l-1.9-8l-5.7,4.1c0.3,0.5,0.5,1.1,0.5,1.7c0,1.8-1.4,3.2-3.2,3.2
		c0,0,0,0-0.1,0c0.7,1.6,1.3,2.9,1.5,3.4c0.3,0.3,0.7,0.5,1,0.7l-0.8,0l1.4,6l7.5,2.7l-5.3,3.8c0,0-0.3,0-0.6-0.1l0.9,3.6
		c-1.9,1.3-3.5,8.6,2.1,8.8c24.3-5,47.7-4.5,70.7,0c3.7,1.1,4.7-6,1.7-8.5l0.9-3.9c-0.4,0.1-0.7,0.1-0.7,0.1l-5.3-3.8l7.5-2.7l1.4-6
		l-0.8,0c0.3-0.2,0.7-0.5,1-0.7c0.2-0.6,0.8-1.9,1.5-3.4c-1.8,0-3.2-1.5-3.2-3.2c0-0.6,0.2-1.1,0.5-1.6l-5.8-4.1l-1.9,8l7,0.1
		c0,0-1.3,2.4-2.2,3.3c-7,2.8-14.8-3.4-14.5-3.2c0,0-0.1-2,0.5-2.6c0.4-0.5,1.3-0.8,1.9-0.6c1.8,0.4,2.1,2.9,2.1,2.9
		s1.1-1.1,1.5-3.7c0.2-1.6-0.4-3.4-2.1-3.9c-0.7-0.2-2.2,0-2.8,0.6c1.8-4.8,1.7-9.1-0.2-11.9h0c-2.6,1.9-4.1,5.9-3.9,11.1
		c-0.3-0.8-1.7-1.5-2.4-1.5c-1.7-0.1-2.8,1.3-3.2,2.9c-0.4,2.5,0.3,4,0.3,4s1-2.3,2.9-2c0.7,0,1.4,0.6,1.6,1.2
		c0.4,0.8-0.2,2.6-0.2,2.6s-1.7,2.3-7,2.1c-5.3-0.3-9.3-8.8-9.3-8.8l7.1,4.3l0.9-13.5l-8.1,3l5.6-9h-2.7c0.1-0.4,0.1-0.8,0.1-1.2
		V42.9c0.1,0.1,0.2,0.2,0.2,0.2s9.6-2.5,19.4-7.9c9.8-5.4,17.1,0.3,17.1,0.3s5.9,2.8,7.2,14.7c0.9,8.2-3.3,14.8-6,18l-4.4-1.9
		l1.3,8.7c0.6-0.8,1.5-1.3,2.6-1.3c1,0,1.9,0.4,2.4,1.1c0.6-1.3,1.2-2.5,1.6-3.4c0.7-1,2-3.1,3.7-6c2.5-4.3,5.3-13.7,2.9-21.6
		C230,32.7,222.2,29.2,220,28.7c-10.4-2.5-17.5,1.9-24.6,6c-3.8,2.3-7.4,3.3-10,3.8v-6.3c1.3-1.4,2-3.2,2-5.1c0-2.8-1.5-5.2-3.7-6.5
		c-0.4-1.5-1-3.7-1.4-5.4l5.9,3.5l0.8-11.5l-7,2.5L187,2h-7h-7.1l4.9,7.7l-7-2.5l0.8,11.5l5.9-3.5c-0.5,1.7-1.1,3.9-1.4,5.4
		c-2.2,1.3-3.7,3.7-3.7,6.5c0,2.1,0.8,3.9,2.2,5.3v6.2c-2.5-0.5-6.2-1.5-10-3.8c-7-4.2-14.1-8.5-24.6-6
		C137.8,29.2,129.9,32.7,126.4,43.9z M180,45.6c-1.8,0-3.2-1.5-3.2-3.2c0-1.8,1.5-3.2,3.2-3.2c1.8,0,3.2,1.5,3.2,3.2
		C183.2,44.1,181.8,45.6,180,45.6z M183.2,51c0,1.8-1.4,3.2-3.2,3.2c-1.8,0-3.2-1.5-3.2-3.2c0-1.8,1.5-3.2,3.2-3.2
		C181.8,47.7,183.2,49.2,183.2,51z M205.4,92.1c-0.4,1.6-3,2.6-5.9,2.2c-2.9-0.4-4.9-2-4.5-3.6c0.4-1.6,3-2.6,5.9-2.2
		C203.8,88.8,205.8,90.4,205.4,92.1z M185.5,91.6c0,1-0.8,1.9-1.9,1.9h-7.2c-1,0-1.9-0.9-1.9-1.9v-2.2c0-1,0.8-1.9,1.9-1.9h7.2
		c1,0,1.9,0.8,1.9,1.9V91.6z M159.1,88.4c2.9-0.4,5.5,0.6,5.9,2.2c0.4,1.6-1.6,3.2-4.5,3.6c-2.9,0.4-5.5-0.6-5.9-2.2
		C154.2,90.4,156.2,88.8,159.1,88.4z M159.4,80.9c0,0,2.6,1.4,6,2l-10,0.6C157.8,82.2,159.4,80.9,159.4,80.9z M200.6,80.9
		c0,0,1.6,1.3,4,2.6l-10-0.6C198.1,82.3,200.6,80.9,200.6,80.9z M187.7,82.5l-7.7-0.4l-7.7,0.4c2.9-1,5.7-3.1,7.7-7.4
		C182.1,79.4,184.9,81.6,187.7,82.5z M183.2,68.4c0,1.8-1.4,3.2-3.2,3.2c-1.8,0-3.2-1.5-3.2-3.2c0-1.8,1.5-3.2,3.2-3.2
		C181.8,65.1,183.2,66.6,183.2,68.4z M176.7,12.9c0-1.8,1.5-3.2,3.2-3.2c1.8,0,3.2,1.5,3.2,3.2c0,1.8-1.5,3.2-3.2,3.2
		C178.2,16.2,176.7,14.7,176.7,12.9z M180,30.5c1.8,0,3.2,1.5,3.2,3.2c0,1.8-1.4,3.2-3.2,3.2c-1.8,0-3.2-1.5-3.2-3.2
		C176.8,31.9,178.2,30.5,180,30.5z"/>
	<circle class="st0" cx="149.2" cy="24.5" r="3.2"/>
	<circle class="st0" cx="138.8" cy="25.2" r="3.2"/>
	<circle class="st0" cx="129.9" cy="30.8" r="3.2"/>
	<circle class="st0" cx="127.4" cy="69.4" r="3.2"/>
	<circle class="st0" cx="123.2" cy="60.3" r="3.2"/>
	<circle class="st0" cx="121.8" cy="49.8" r="3.2"/>
	<ellipse transform="matrix(0.1642 -0.9864 0.9864 0.1642 64.6625 155.2127)" class="st0" cx="123.9" cy="39.5" rx="3.2" ry="3.2"/>
	<circle class="st0" cx="159.1" cy="27.7" r="3.2"/>
	<circle class="st0" cx="167.6" cy="32.4" r="3.2"/>
	<circle class="st0" cx="210.7" cy="24.5" r="3.2"/>
	<circle class="st0" cx="221.1" cy="25.2" r="3.2"/>
	<circle class="st0" cx="230.1" cy="30.8" r="3.2"/>
	<circle class="st0" cx="232.5" cy="69.4" r="3.2"/>
	<circle class="st0" cx="236.7" cy="60.3" r="3.2"/>
	<circle class="st0" cx="238.2" cy="49.8" r="3.2"/>
	<ellipse transform="matrix(0.9865 -0.1635 0.1635 0.9865 -3.2742 39.1185)" class="st0" cx="236" cy="39.5" rx="3.2" ry="3.2"/>
	<circle class="st0" cx="200.8" cy="27.7" r="3.2"/>
	<circle class="st0" cx="192.3" cy="32.4" r="3.2"/>
</g>
</svg>
