<?xml version="1.0" encoding="UTF-8" standalone="no"?>
<svg width="103px" height="88px" viewBox="0 0 103 88" version="1.1" xmlns="http://www.w3.org/2000/svg" xmlns:xlink="http://www.w3.org/1999/xlink">
    <!-- Generator: Sketch 43.1 (39012) - http://www.bohemiancoding.com/sketch -->
    <title>Page 1</title>
    <desc>Created with Sketch.</desc>
    <defs></defs>
    <g id="Style-Guide" stroke="none" stroke-width="1" fill="none" fill-rule="evenodd" opacity="0.458106884">
        <g id="Artboard" transform="translate(-70.000000, -775.000000)" fill="#EAEAEA">
            <path d="M71.5975969,775 C70.6393114,775 70,775.627575 70,776.570279 L70,817.42838 C70,818.371084 70.6393114,819 71.5975969,819 L98.7540173,819 C98.7540173,834.940144 86.2036125,847.286481 70,847.286481 L70,863 C94.6905051,863 114.72726,843.289041 114.72726,819 L114.72726,776.570279 C114.72726,775.627575 114.089311,775 113.131026,775 L71.5975969,775 Z M129.104268,775 C128.145983,775 127.508035,775.627575 127.508035,776.570279 L127.508035,817.42838 C127.508035,818.371084 128.145983,819 129.104268,819 L156.260689,819 C156.260689,834.940144 143.710284,847.286481 127.508035,847.286481 L127.508035,863 C152.19854,863 172.235294,843.289041 172.235294,819 L172.235294,776.570279 C172.235294,775.627575 171.595983,775 170.637697,775 L129.104268,775 Z" id="Page-1" transform="translate(121.117647, 819.000000) scale(-1, -1) translate(-121.117647, -819.000000) "></path>
        </g>
    </g>
</svg>